bicep_curl
version=1
nRows=181
nColumns=3
inDegrees=yes

# SIMM Motion File Header:
name bicep_curl
datacolumns 3
datarows 181
otherdata 1
range 0.0000 0.1800
endheader
time	/jointset/r_shoulder/r_shoulder_elev/value	/jointset/r_elbow/r_elbow_flex/value
0.0000	0.0000	11.2000
0.0010	0.0000	11.4869
0.0020	0.0000	11.7727
0.0030	0.0000	12.0576
0.0040	0.0000	12.3414
0.0050	0.0000	12.6242
0.0060	0.0000	12.9060
0.0070	0.0000	13.1868
0.0080	0.0000	13.4666
0.0090	0.0000	13.7454
0.0100	0.0000	14.0231
0.0110	0.0000	14.2999
0.0120	0.0000	14.5756
0.0130	0.0000	14.8503
0.0140	0.0000	15.1240
0.0150	0.0000	15.3967
0.0160	0.0000	15.6684
0.0170	0.0000	15.9390
0.0180	0.0000	16.2087
0.0190	0.0000	16.4773
0.0200	0.0000	16.7449
0.0210	0.0000	17.0116
0.0220	0.0000	17.2772
0.0230	0.0000	17.5417
0.0240	0.0000	17.8053
0.0250	0.0000	18.0679
0.0260	0.0000	18.3294
0.0270	0.0000	18.5900
0.0280	0.0000	18.8495
0.0290	0.0000	19.1080
0.0300	0.0000	19.3655
0.0310	0.0000	19.6220
0.0320	0.0000	19.8774
0.0330	0.0000	20.1319
0.0340	0.0000	20.3853
0.0350	0.0000	20.6378
0.0360	0.0000	20.8892
0.0370	0.0000	21.1396
0.0380	0.0000	21.3890
0.0390	0.0000	21.6374
0.0400	0.0000	21.8847
0.0410	0.0000	22.1311
0.0420	0.0000	22.3764
0.0430	0.0000	22.6208
0.0440	0.0000	22.8641
0.0450	0.0000	23.1064
0.0460	0.0000	23.3477
0.0470	0.0000	23.5880
0.0480	0.0000	23.8272
0.0490	0.0000	24.0655
0.0500	0.0000	24.3027
0.0510	0.0000	24.5389
0.0520	0.0000	24.7742
0.0530	0.0000	25.0084
0.0540	0.0000	25.2415
0.0550	0.0000	25.4737
0.0560	0.0000	25.7049
0.0570	0.0000	25.9350
0.0580	0.0000	26.1642
0.0590	0.0000	26.3923
0.0600	0.0000	26.6194
0.0610	0.0000	26.8455
0.0620	0.0000	27.0706
0.0630	0.0000	27.2947
0.0640	0.0000	27.5177
0.0650	0.0000	27.7398
0.0660	0.0000	27.9608
0.0670	0.0000	28.1808
0.0680	0.0000	28.3998
0.0690	0.0000	28.6178
0.0700	0.0000	28.8348
0.0710	0.0000	29.0508
0.0720	0.0000	29.2657
0.0730	0.0000	29.4797
0.0740	0.0000	29.6926
0.0750	0.0000	29.9045
0.0760	0.0000	30.1154
0.0770	0.0000	30.3253
0.0780	0.0000	30.5342
0.0790	0.0000	30.7421
0.0800	0.0000	30.9489
0.0810	0.0000	31.1547
0.0820	0.0000	31.3596
0.0830	0.0000	31.5634
0.0840	0.0000	31.7662
0.0850	0.0000	31.9680
0.0860	0.0000	32.1688
0.0870	0.0000	32.3685
0.0880	0.0000	32.5673
0.0890	0.0000	32.7650
0.0900	0.0000	32.9617
0.0910	0.0000	33.1574
0.0920	0.0000	33.3521
0.0930	0.0000	33.5458
0.0940	0.0000	33.7385
0.0950	0.0000	33.9302
0.0960	0.0000	34.1208
0.0970	0.0000	34.3104
0.0980	0.0000	34.4991
0.0990	0.0000	34.6867
0.1000	0.0000	34.8733
0.1010	0.0000	35.0589
0.1020	0.0000	35.2434
0.1030	0.0000	35.4270
0.1040	0.0000	35.6095
0.1050	0.0000	35.7911
0.1060	0.0000	35.9716
0.1070	0.0000	36.1511
0.1080	0.0000	36.3296
0.1090	0.0000	36.5071
0.1100	0.0000	36.6835
0.1110	0.0000	36.8590
0.1120	0.0000	37.0334
0.1130	0.0000	37.2068
0.1140	0.0000	37.3793
0.1150	0.0000	37.5507
0.1160	0.0000	37.7211
0.1170	0.0000	37.8904
0.1180	0.0000	38.0588
0.1190	0.0000	38.2261
0.1200	0.0000	38.3925
0.1210	0.0000	38.5578
0.1220	0.0000	38.7221
0.1230	0.0000	38.8854
0.1240	0.0000	39.0477
0.1250	0.0000	39.2090
0.1260	0.0000	39.3692
0.1270	0.0000	39.5285
0.1280	0.0000	39.6867
0.1290	0.0000	39.8440
0.1300	0.0000	40.0002
0.1310	0.0000	40.1554
0.1320	0.0000	40.3095
0.1330	0.0000	40.4627
0.1340	0.0000	40.6149
0.1350	0.0000	40.7660
0.1360	0.0000	40.9162
0.1370	0.0000	41.0653
0.1380	0.0000	41.2134
0.1390	0.0000	41.3605
0.1400	0.0000	41.5066
0.1410	0.0000	41.6516
0.1420	0.0000	41.7957
0.1430	0.0000	41.9387
0.1440	0.0000	42.0808
0.1450	0.0000	42.2218
0.1460	0.0000	42.3618
0.1470	0.0000	42.5008
0.1480	0.0000	42.6387
0.1490	0.0000	42.7757
0.1500	0.0000	42.9117
0.1510	0.0000	43.0466
0.1520	0.0000	43.1805
0.1530	0.0000	43.3134
0.1540	0.0000	43.4453
0.1550	0.0000	43.5762
0.1560	0.0000	43.7061
0.1570	0.0000	43.8350
0.1580	0.0000	43.9628
0.1590	0.0000	44.0897
0.1600	0.0000	44.2155
0.1610	0.0000	44.3403
0.1620	0.0000	44.4641
0.1630	0.0000	44.5869
0.1640	0.0000	44.7087
0.1650	0.0000	44.8294
0.1660	0.0000	44.9492
0.1670	0.0000	45.0679
0.1680	0.0000	45.1856
0.1690	0.0000	45.3023
0.1700	0.0000	45.4180
0.1710	0.0000	45.5327
0.1720	0.0000	45.6464
0.1730	0.0000	45.7590
0.1740	0.0000	45.8707
0.1750	0.0000	45.9813
0.1760	0.0000	46.0909
0.1770	0.0000	46.1995
0.1780	0.0000	46.3071
0.1790	0.0000	46.4137
0.1800	0.0000	46.5193
